<?xml version="1.0" encoding="utf-8"?>
<!-- Generator: Adobe Illustrator 19.0.0, SVG Export Plug-In . SVG Version: 6.00 Build 0)  -->
<svg version="1.1" id="Layer_1" xmlns:svgjs="http://svgjs.com/svgjs"
	 xmlns="http://www.w3.org/2000/svg" xmlns:xlink="http://www.w3.org/1999/xlink" x="0px" y="0px" viewBox="-162 25 390 512"
	 style="enable-background:new -162 25 390 512;" xml:space="preserve">
<style type="text/css">
	.st0{fill:#FFFFFF;}
</style>
<g>
	<path class="st0" d="M-117,537h300c24.8,0,45-20.2,45-45V175H123c-24.8,0-45-20.2-45-45V25h-195c-24.8,0-45,20.2-45,45v422
		C-162,516.8-141.8,537-117,537z M-57,236h180c8.3,0,15,6.7,15,15c0,8.3-6.7,15-15,15H-57c-8.3,0-15-6.7-15-15
		C-72,242.7-65.3,236-57,236z M-57,296h180c8.3,0,15,6.7,15,15s-6.7,15-15,15H-57c-8.3,0-15-6.7-15-15S-65.3,296-57,296z M-57,356
		h180c8.3,0,15,6.7,15,15s-6.7,15-15,15H-57c-8.3,0-15-6.7-15-15S-65.3,356-57,356z M-57,416H63c8.3,0,15,6.7,15,15s-6.7,15-15,15
		H-57c-8.3,0-15-6.7-15-15S-65.3,416-57,416z"/>
	<path class="st0" d="M123,145h96.2L108,33.8V130C108,138.3,114.7,145,123,145z"/>
</g>
</svg>
