<?xml version="1.0" encoding="utf-8"?>
<!-- Generator: Adobe Illustrator 19.0.0, SVG Export Plug-In . SVG Version: 6.00 Build 0)  -->
<svg version="1.1" id="Capa_1" xmlns="http://www.w3.org/2000/svg" xmlns:xlink="http://www.w3.org/1999/xlink" x="0px" y="0px"
	 viewBox="-254.5 75 415 415" style="enable-background:new -254.5 75 415 415;" xml:space="preserve">
<style type="text/css">
	.st0{fill:#E58C17;}
	.st1{display:none;}
	.st2{display:inline;fill:#D90200;}
	.st3{display:none;fill:#E00046;}
</style>
<path class="st0" d="M-45.5,490L-45.5,490C-160.1,490-253,397.1-253,282.5v0C-253,167.9-160.1,75-45.5,75h0
	C69.1,75,162,167.9,162,282.5v0C162,397.1,69.1,490-45.5,490z"/>
<g id="surface1" class="st1">
	<path class="st2" d="M-112.1,490c-46.1-152,51.3-207.5,51.3-207.5c-6.8,81.1,39.3,144.3,39.3,144.3c17-5.1,49.3-29,49.3-29
		c0,29-17.1,92.2-17.1,92.2s59.8-46.2,78.6-123c18.8-76.8-35.8-153.8-35.8-153.8c3.3,54.3-15.1,107.8-51.1,148.6
		c1.8-2.1,3.3-4.4,4.5-6.9c6.5-12.9,16.9-46.6,10.8-124.4C9.1,121.1-89.9,75-89.9,75c8.5,66.6-17.1,82-77,208.4
		C-226.9,409.8-112.1,490-112.1,490z"/>
</g>
<path class="st3" d="M-253.5,477.4L-54.8,79.8c3.2-6.4,12.4-6.4,15.6,0l198.8,397.6c2.9,5.8-1.3,12.6-7.8,12.6h-397.5
	C-252.2,490-256.4,483.2-253.5,477.4z"/>
</svg>
