<?xml version="1.0"?>
<svg xmlns="http://www.w3.org/2000/svg" xmlns:xlink="http://www.w3.org/1999/xlink" xmlns:svgjs="http://svgjs.com/svgjs" version="1.1" width="512" height="512" x="0" y="0" viewBox="0 0 512 512" style="enable-background:new 0 0 512 512" xml:space="preserve" class=""><g><path xmlns="http://www.w3.org/2000/svg" d="m256 301c-39 0-73.5 20.699219-91.800781 53.699219 24.300781 22.800781 56.402343 36.300781 91.800781 36.300781s67.5-13.5 91.800781-36.300781c-18.300781-33-52.800781-53.699219-91.800781-53.699219zm0 0" fill="#cfd9e0" data-original="#000000" style="" class=""/><path xmlns="http://www.w3.org/2000/svg" d="m475.082031 205.300781c-5.609375-24.34375-15.101562-47.269531-28.316406-68.378906l19.03125-31.742187-58.976563-58.976563-31.742187 19.03125c-21.109375-13.214844-44.035156-22.707031-68.378906-28.316406l-8.980469-36.917969h-83.4375l-8.980469 36.917969c-24.34375 5.609375-47.269531 15.101562-68.378906 28.316406l-31.742187-19.03125-58.976563 58.976563 19.03125 31.742187c-13.214844 21.109375-22.707031 44.035156-28.316406 68.378906l-36.917969 8.980469v83.4375l36.917969 8.980469c5.609375 24.34375 15.101562 47.269531 28.316406 68.378906l-19.03125 31.742187 58.976563 58.976563 31.742187-19.03125c21.109375 13.214844 44.035156 22.707031 68.378906 28.316406l8.980469 36.917969h83.4375l8.980469-36.917969c24.34375-5.609375 47.269531-15.101562 68.378906-28.316406l31.742187 19.03125 58.976563-58.976563-19.03125-31.742187c13.214844-21.109375 22.707031-44.035156 28.316406-68.378906l36.917969-8.980469v-83.4375zm-219.082031 215.699219c-90.980469 0-165-74.019531-165-165s74.019531-165 165-165 165 74.019531 165 165-74.019531 165-165 165zm0 0" fill="#cfd9e0" data-original="#000000" style="" class=""/><path xmlns="http://www.w3.org/2000/svg" d="m331 226c0-41.351562-33.648438-75-75-75s-75 33.648438-75 75 33.648438 75 75 75 75-33.648438 75-75zm0 0" fill="#cfd9e0" data-original="#000000" style="" class=""/></g></svg>
